<mxfile host="app.diagrams.net" modified="2024-01-17T19:58:20.893Z" agent="Mozilla/5.0 (Windows NT 10.0; Win64; x64) AppleWebKit/537.36 (KHTML, like Gecko) Chrome/120.0.0.0 Safari/537.36" etag="6cSReFLoelLNiEmqmzHc" version="22.1.21" type="device">
  <diagram name="Page-1" id="uefWlJh99sZlFegfP22R">
    <mxGraphModel dx="896" dy="1094" grid="1" gridSize="10" guides="1" tooltips="1" connect="1" arrows="1" fold="1" page="0" pageScale="1" pageWidth="850" pageHeight="1100" math="0" shadow="0">
      <root>
        <mxCell id="0" />
        <mxCell id="1" parent="0" />
        <mxCell id="phURn1hj5qTQnRwEF0jg-42" value="" style="rounded=0;whiteSpace=wrap;html=1;strokeWidth=7;fillColor=default;" parent="1" vertex="1">
          <mxGeometry x="444" y="-281" width="1126" height="631" as="geometry" />
        </mxCell>
        <mxCell id="gQOOfUeZjju-Q29w7hby-9" value="&lt;p style=&quot;line-height: 100%;&quot;&gt;&lt;/p&gt;&lt;h1 style=&quot;line-height: 100%;&quot;&gt;INS Data Gathering Pipeline&lt;/h1&gt;&lt;div&gt;&lt;b&gt;github.com/CBIIT/INS-Data&lt;/b&gt;&lt;/div&gt;&lt;div&gt;&lt;b&gt;&lt;br&gt;&lt;/b&gt;&lt;/div&gt;&lt;div style=&quot;line-height: 120%;&quot;&gt;The INS Data Gathering Pipeline is designed to use a curated list of key National Cancer Institute (NCI) Programs to build lists of all associated extramural grants, projects and their associated publications. It accesses resources from NIH RePORTER, NCBI PubMed, and NIH iCite, using the output of each step as the input to another.&amp;nbsp;&lt;span style=&quot;background-color: initial;&quot;&gt;The gathered data are packaged into TSVs suitable for ingestion into the INS data loading process. Intermediate files and reports are generated throughout the process for troubleshooting and data insight.&amp;nbsp;&lt;/span&gt;&lt;/div&gt;&lt;p&gt;&lt;/p&gt;" style="text;html=1;strokeColor=none;fillColor=none;spacing=5;spacingTop=-20;whiteSpace=wrap;overflow=hidden;rounded=0;" parent="1" vertex="1">
          <mxGeometry x="478" y="-270" width="1062" height="130" as="geometry" />
        </mxCell>
        <mxCell id="r6HnroZV0TJYuFAMtPQ7-27" style="edgeStyle=orthogonalEdgeStyle;rounded=0;orthogonalLoop=1;jettySize=auto;html=1;" edge="1" parent="1" source="wkYrDo4dlBRFe5t2DFDZ-1" target="wkYrDo4dlBRFe5t2DFDZ-2">
          <mxGeometry relative="1" as="geometry" />
        </mxCell>
        <mxCell id="wkYrDo4dlBRFe5t2DFDZ-1" value="Curated Programs&amp;nbsp; (Qualtrics CSV)" style="strokeWidth=1;html=1;shape=mxgraph.flowchart.document2;whiteSpace=wrap;size=0.25;fillColor=#d5e8d4;strokeColor=#82b366;verticalAlign=top;" parent="1" vertex="1">
          <mxGeometry x="480" y="-25" width="120" height="50" as="geometry" />
        </mxCell>
        <mxCell id="r6HnroZV0TJYuFAMtPQ7-30" style="edgeStyle=orthogonalEdgeStyle;rounded=0;orthogonalLoop=1;jettySize=auto;html=1;exitX=0.75;exitY=0;exitDx=0;exitDy=0;entryX=0.682;entryY=0.755;entryDx=0;entryDy=0;entryPerimeter=0;strokeColor=none;" edge="1" parent="1" source="wkYrDo4dlBRFe5t2DFDZ-2" target="wkYrDo4dlBRFe5t2DFDZ-19">
          <mxGeometry relative="1" as="geometry">
            <mxPoint x="730" y="-70" as="targetPoint" />
          </mxGeometry>
        </mxCell>
        <mxCell id="wkYrDo4dlBRFe5t2DFDZ-2" value="Gather Programs" style="rounded=0;whiteSpace=wrap;html=1;fillColor=#dae8fc;strokeColor=#6c8ebf;fontStyle=1" parent="1" vertex="1">
          <mxGeometry x="640" y="-20" width="120" height="40" as="geometry" />
        </mxCell>
        <mxCell id="r6HnroZV0TJYuFAMtPQ7-33" style="edgeStyle=orthogonalEdgeStyle;rounded=0;orthogonalLoop=1;jettySize=auto;html=1;entryX=0;entryY=0.5;entryDx=0;entryDy=0;" edge="1" parent="1" source="wkYrDo4dlBRFe5t2DFDZ-3" target="wkYrDo4dlBRFe5t2DFDZ-14">
          <mxGeometry relative="1" as="geometry" />
        </mxCell>
        <mxCell id="r6HnroZV0TJYuFAMtPQ7-49" style="edgeStyle=orthogonalEdgeStyle;rounded=0;orthogonalLoop=1;jettySize=auto;html=1;entryX=0;entryY=0;entryDx=0;entryDy=0;" edge="1" parent="1" source="wkYrDo4dlBRFe5t2DFDZ-3" target="r6HnroZV0TJYuFAMtPQ7-10">
          <mxGeometry relative="1" as="geometry">
            <Array as="points">
              <mxPoint x="700" y="140" />
              <mxPoint x="950" y="140" />
            </Array>
          </mxGeometry>
        </mxCell>
        <mxCell id="wkYrDo4dlBRFe5t2DFDZ-3" value="Programs" style="strokeWidth=1;html=1;shape=mxgraph.flowchart.document2;whiteSpace=wrap;size=0.25;fillColor=#fff2cc;strokeColor=#d6b656;verticalAlign=top;" parent="1" vertex="1">
          <mxGeometry x="640" y="60" width="120" height="40" as="geometry" />
        </mxCell>
        <mxCell id="r6HnroZV0TJYuFAMtPQ7-34" style="edgeStyle=orthogonalEdgeStyle;rounded=0;orthogonalLoop=1;jettySize=auto;html=1;exitX=0.5;exitY=1;exitDx=0;exitDy=0;exitPerimeter=0;" edge="1" parent="1" source="r6HnroZV0TJYuFAMtPQ7-39" target="wkYrDo4dlBRFe5t2DFDZ-14">
          <mxGeometry relative="1" as="geometry">
            <mxPoint x="900" y="-60" as="sourcePoint" />
          </mxGeometry>
        </mxCell>
        <mxCell id="r6HnroZV0TJYuFAMtPQ7-37" style="edgeStyle=orthogonalEdgeStyle;rounded=0;orthogonalLoop=1;jettySize=auto;html=1;entryX=0;entryY=0.5;entryDx=0;entryDy=0;" edge="1" parent="1" source="wkYrDo4dlBRFe5t2DFDZ-21" target="r6HnroZV0TJYuFAMtPQ7-1">
          <mxGeometry relative="1" as="geometry" />
        </mxCell>
        <mxCell id="r6HnroZV0TJYuFAMtPQ7-50" style="edgeStyle=orthogonalEdgeStyle;rounded=0;orthogonalLoop=1;jettySize=auto;html=1;entryX=0.25;entryY=0;entryDx=0;entryDy=0;" edge="1" parent="1" source="wkYrDo4dlBRFe5t2DFDZ-21" target="r6HnroZV0TJYuFAMtPQ7-10">
          <mxGeometry relative="1" as="geometry">
            <Array as="points">
              <mxPoint x="900" y="130" />
              <mxPoint x="980" y="130" />
            </Array>
          </mxGeometry>
        </mxCell>
        <mxCell id="wkYrDo4dlBRFe5t2DFDZ-21" value="Grants" style="strokeWidth=1;html=1;shape=mxgraph.flowchart.document2;whiteSpace=wrap;size=0.25;fillColor=#fff2cc;strokeColor=#d6b656;verticalAlign=top;" parent="1" vertex="1">
          <mxGeometry x="840.25" y="60" width="120" height="40" as="geometry" />
        </mxCell>
        <mxCell id="r6HnroZV0TJYuFAMtPQ7-35" style="edgeStyle=orthogonalEdgeStyle;rounded=0;orthogonalLoop=1;jettySize=auto;html=1;" edge="1" parent="1" source="wkYrDo4dlBRFe5t2DFDZ-14" target="wkYrDo4dlBRFe5t2DFDZ-21">
          <mxGeometry relative="1" as="geometry" />
        </mxCell>
        <mxCell id="wkYrDo4dlBRFe5t2DFDZ-14" value="Gather Grants" style="rounded=0;whiteSpace=wrap;html=1;fillColor=#dae8fc;strokeColor=#6c8ebf;fontStyle=1" parent="1" vertex="1">
          <mxGeometry x="840" y="-20" width="120" height="40" as="geometry" />
        </mxCell>
        <mxCell id="r6HnroZV0TJYuFAMtPQ7-1" value="Gather Projects" style="rounded=0;whiteSpace=wrap;html=1;fillColor=#dae8fc;strokeColor=#6c8ebf;fontStyle=1" vertex="1" parent="1">
          <mxGeometry x="1040" y="-20" width="120" height="40" as="geometry" />
        </mxCell>
        <mxCell id="r6HnroZV0TJYuFAMtPQ7-44" style="edgeStyle=orthogonalEdgeStyle;rounded=0;orthogonalLoop=1;jettySize=auto;html=1;entryX=0;entryY=0.5;entryDx=0;entryDy=0;" edge="1" parent="1" source="r6HnroZV0TJYuFAMtPQ7-2" target="r6HnroZV0TJYuFAMtPQ7-7">
          <mxGeometry relative="1" as="geometry" />
        </mxCell>
        <mxCell id="r6HnroZV0TJYuFAMtPQ7-51" style="edgeStyle=orthogonalEdgeStyle;rounded=0;orthogonalLoop=1;jettySize=auto;html=1;entryX=0.75;entryY=0;entryDx=0;entryDy=0;" edge="1" parent="1" source="r6HnroZV0TJYuFAMtPQ7-2" target="r6HnroZV0TJYuFAMtPQ7-10">
          <mxGeometry relative="1" as="geometry">
            <Array as="points">
              <mxPoint x="1100" y="130" />
              <mxPoint x="1040" y="130" />
            </Array>
          </mxGeometry>
        </mxCell>
        <mxCell id="r6HnroZV0TJYuFAMtPQ7-2" value="Projects" style="strokeWidth=1;html=1;shape=mxgraph.flowchart.document2;whiteSpace=wrap;size=0.25;fillColor=#fff2cc;strokeColor=#d6b656;verticalAlign=top;" vertex="1" parent="1">
          <mxGeometry x="1040" y="60" width="120" height="40" as="geometry" />
        </mxCell>
        <mxCell id="r6HnroZV0TJYuFAMtPQ7-42" style="edgeStyle=orthogonalEdgeStyle;rounded=0;orthogonalLoop=1;jettySize=auto;html=1;entryX=0.25;entryY=0;entryDx=0;entryDy=0;" edge="1" parent="1" source="r6HnroZV0TJYuFAMtPQ7-4" target="r6HnroZV0TJYuFAMtPQ7-7">
          <mxGeometry relative="1" as="geometry" />
        </mxCell>
        <mxCell id="r6HnroZV0TJYuFAMtPQ7-4" value="NIH RePORTER" style="shape=cylinder3;whiteSpace=wrap;html=1;boundedLbl=1;backgroundOutline=1;size=15;fillColor=#e1d5e7;strokeColor=#9673a6;" vertex="1" parent="1">
          <mxGeometry x="1180" y="-140" width="80" height="80" as="geometry" />
        </mxCell>
        <mxCell id="r6HnroZV0TJYuFAMtPQ7-52" style="edgeStyle=orthogonalEdgeStyle;rounded=0;orthogonalLoop=1;jettySize=auto;html=1;entryX=1;entryY=0;entryDx=0;entryDy=0;" edge="1" parent="1" source="r6HnroZV0TJYuFAMtPQ7-5" target="r6HnroZV0TJYuFAMtPQ7-10">
          <mxGeometry relative="1" as="geometry">
            <Array as="points">
              <mxPoint x="1300" y="140" />
              <mxPoint x="1070" y="140" />
            </Array>
          </mxGeometry>
        </mxCell>
        <mxCell id="r6HnroZV0TJYuFAMtPQ7-5" value="Publications" style="strokeWidth=1;html=1;shape=mxgraph.flowchart.document2;whiteSpace=wrap;size=0.25;fillColor=#fff2cc;strokeColor=#d6b656;verticalAlign=top;" vertex="1" parent="1">
          <mxGeometry x="1240" y="60" width="120" height="40" as="geometry" />
        </mxCell>
        <mxCell id="r6HnroZV0TJYuFAMtPQ7-7" value="Gather Publications" style="rounded=0;whiteSpace=wrap;html=1;fillColor=#dae8fc;strokeColor=#6c8ebf;fontStyle=1" vertex="1" parent="1">
          <mxGeometry x="1240" y="-20" width="120" height="40" as="geometry" />
        </mxCell>
        <mxCell id="r6HnroZV0TJYuFAMtPQ7-41" style="edgeStyle=orthogonalEdgeStyle;rounded=0;orthogonalLoop=1;jettySize=auto;html=1;" edge="1" parent="1" source="r6HnroZV0TJYuFAMtPQ7-8" target="r6HnroZV0TJYuFAMtPQ7-7">
          <mxGeometry relative="1" as="geometry" />
        </mxCell>
        <mxCell id="r6HnroZV0TJYuFAMtPQ7-43" style="edgeStyle=orthogonalEdgeStyle;rounded=0;orthogonalLoop=1;jettySize=auto;html=1;entryX=0.75;entryY=0;entryDx=0;entryDy=0;" edge="1" parent="1" source="r6HnroZV0TJYuFAMtPQ7-9" target="r6HnroZV0TJYuFAMtPQ7-7">
          <mxGeometry relative="1" as="geometry" />
        </mxCell>
        <mxCell id="r6HnroZV0TJYuFAMtPQ7-9" value="&amp;nbsp;NIH &lt;br&gt;iCite" style="shape=cylinder3;whiteSpace=wrap;html=1;boundedLbl=1;backgroundOutline=1;size=15;fillColor=#e1d5e7;strokeColor=#9673a6;" vertex="1" parent="1">
          <mxGeometry x="1340" y="-140" width="80" height="80" as="geometry" />
        </mxCell>
        <mxCell id="r6HnroZV0TJYuFAMtPQ7-54" style="edgeStyle=orthogonalEdgeStyle;rounded=0;orthogonalLoop=1;jettySize=auto;html=1;" edge="1" parent="1" source="r6HnroZV0TJYuFAMtPQ7-10">
          <mxGeometry relative="1" as="geometry">
            <mxPoint x="1010" y="260" as="targetPoint" />
          </mxGeometry>
        </mxCell>
        <mxCell id="r6HnroZV0TJYuFAMtPQ7-10" value="Package Data" style="rounded=0;whiteSpace=wrap;html=1;fillColor=#dae8fc;strokeColor=#6c8ebf;fontStyle=1" vertex="1" parent="1">
          <mxGeometry x="950" y="180" width="120" height="40" as="geometry" />
        </mxCell>
        <mxCell id="r6HnroZV0TJYuFAMtPQ7-17" value="" style="group;fontStyle=1;labelBorderColor=none;shadow=0;" vertex="1" connectable="0" parent="1">
          <mxGeometry x="940" y="260" width="135" height="55" as="geometry" />
        </mxCell>
        <mxCell id="r6HnroZV0TJYuFAMtPQ7-11" value="" style="strokeWidth=1;html=1;shape=mxgraph.flowchart.document2;whiteSpace=wrap;size=0.25;fillColor=#fff2cc;strokeColor=#d6b656;verticalAlign=top;fontStyle=1;labelBorderColor=none;shadow=0;" vertex="1" parent="r6HnroZV0TJYuFAMtPQ7-17">
          <mxGeometry width="120" height="40" as="geometry" />
        </mxCell>
        <mxCell id="r6HnroZV0TJYuFAMtPQ7-12" value="" style="strokeWidth=1;html=1;shape=mxgraph.flowchart.document2;whiteSpace=wrap;size=0.25;fillColor=#fff2cc;strokeColor=#d6b656;verticalAlign=top;fontStyle=1;labelBorderColor=none;shadow=0;" vertex="1" parent="r6HnroZV0TJYuFAMtPQ7-17">
          <mxGeometry x="5" y="5" width="120" height="40" as="geometry" />
        </mxCell>
        <mxCell id="r6HnroZV0TJYuFAMtPQ7-13" value="" style="strokeWidth=1;html=1;shape=mxgraph.flowchart.document2;whiteSpace=wrap;size=0.25;fillColor=#fff2cc;strokeColor=#d6b656;verticalAlign=top;fontStyle=1;labelBorderColor=none;shadow=0;" vertex="1" parent="r6HnroZV0TJYuFAMtPQ7-17">
          <mxGeometry x="10" y="10" width="120" height="40" as="geometry" />
        </mxCell>
        <mxCell id="r6HnroZV0TJYuFAMtPQ7-14" value="Final TSVs" style="strokeWidth=1;html=1;shape=mxgraph.flowchart.document2;whiteSpace=wrap;size=0.25;fillColor=#fff2cc;strokeColor=#d6b656;verticalAlign=top;fontStyle=1;labelBorderColor=none;shadow=0;" vertex="1" parent="r6HnroZV0TJYuFAMtPQ7-17">
          <mxGeometry x="15" y="15" width="120" height="40" as="geometry" />
        </mxCell>
        <mxCell id="r6HnroZV0TJYuFAMtPQ7-19" value="" style="group" vertex="1" connectable="0" parent="1">
          <mxGeometry x="1400" y="180" width="135" height="55" as="geometry" />
        </mxCell>
        <mxCell id="r6HnroZV0TJYuFAMtPQ7-20" value="" style="strokeWidth=1;html=1;shape=mxgraph.flowchart.document2;whiteSpace=wrap;size=0.25;fillColor=#fff2cc;strokeColor=#d6b656;verticalAlign=top;" vertex="1" parent="r6HnroZV0TJYuFAMtPQ7-19">
          <mxGeometry width="120" height="40" as="geometry" />
        </mxCell>
        <mxCell id="r6HnroZV0TJYuFAMtPQ7-21" value="" style="strokeWidth=1;html=1;shape=mxgraph.flowchart.document2;whiteSpace=wrap;size=0.25;fillColor=#fff2cc;strokeColor=#d6b656;verticalAlign=top;" vertex="1" parent="r6HnroZV0TJYuFAMtPQ7-19">
          <mxGeometry x="5" y="5" width="120" height="40" as="geometry" />
        </mxCell>
        <mxCell id="r6HnroZV0TJYuFAMtPQ7-22" value="" style="strokeWidth=1;html=1;shape=mxgraph.flowchart.document2;whiteSpace=wrap;size=0.25;fillColor=#fff2cc;strokeColor=#d6b656;verticalAlign=top;" vertex="1" parent="r6HnroZV0TJYuFAMtPQ7-19">
          <mxGeometry x="10" y="10" width="120" height="40" as="geometry" />
        </mxCell>
        <mxCell id="r6HnroZV0TJYuFAMtPQ7-23" value="Reports" style="strokeWidth=1;html=1;shape=mxgraph.flowchart.document2;whiteSpace=wrap;size=0.25;fillColor=#fff2cc;strokeColor=#d6b656;verticalAlign=top;" vertex="1" parent="r6HnroZV0TJYuFAMtPQ7-19">
          <mxGeometry x="15" y="15" width="120" height="40" as="geometry" />
        </mxCell>
        <mxCell id="r6HnroZV0TJYuFAMtPQ7-26" value="" style="group" vertex="1" connectable="0" parent="1">
          <mxGeometry x="632.5" y="-120" width="135" height="55" as="geometry" />
        </mxCell>
        <mxCell id="r6HnroZV0TJYuFAMtPQ7-25" value="" style="strokeWidth=1;html=1;shape=mxgraph.flowchart.document2;whiteSpace=wrap;size=0.25;fillColor=#fff2cc;strokeColor=#d6b656;verticalAlign=top;" vertex="1" parent="r6HnroZV0TJYuFAMtPQ7-26">
          <mxGeometry width="120" height="40" as="geometry" />
        </mxCell>
        <mxCell id="r6HnroZV0TJYuFAMtPQ7-24" value="" style="strokeWidth=1;html=1;shape=mxgraph.flowchart.document2;whiteSpace=wrap;size=0.25;fillColor=#d5e8d4;strokeColor=#82b366;verticalAlign=top;" vertex="1" parent="r6HnroZV0TJYuFAMtPQ7-26">
          <mxGeometry x="5" y="5" width="120" height="40" as="geometry" />
        </mxCell>
        <mxCell id="wkYrDo4dlBRFe5t2DFDZ-18" value="" style="strokeWidth=1;html=1;shape=mxgraph.flowchart.document2;whiteSpace=wrap;size=0.25;fillColor=#fff2cc;strokeColor=#d6b656;verticalAlign=top;" parent="r6HnroZV0TJYuFAMtPQ7-26" vertex="1">
          <mxGeometry x="10" y="10" width="120" height="40" as="geometry" />
        </mxCell>
        <mxCell id="wkYrDo4dlBRFe5t2DFDZ-19" value="Program Validation" style="strokeWidth=1;html=1;shape=mxgraph.flowchart.document2;whiteSpace=wrap;size=0.25;fillColor=#d5e8d4;strokeColor=#82b366;verticalAlign=top;" parent="r6HnroZV0TJYuFAMtPQ7-26" vertex="1">
          <mxGeometry x="15" y="15" width="120" height="40" as="geometry" />
        </mxCell>
        <mxCell id="r6HnroZV0TJYuFAMtPQ7-31" style="edgeStyle=orthogonalEdgeStyle;rounded=0;orthogonalLoop=1;jettySize=auto;html=1;entryX=0.436;entryY=0.875;entryDx=0;entryDy=0;entryPerimeter=0;startArrow=classic;startFill=1;" edge="1" parent="1" source="wkYrDo4dlBRFe5t2DFDZ-2" target="wkYrDo4dlBRFe5t2DFDZ-19">
          <mxGeometry relative="1" as="geometry" />
        </mxCell>
        <mxCell id="r6HnroZV0TJYuFAMtPQ7-32" style="edgeStyle=orthogonalEdgeStyle;rounded=0;orthogonalLoop=1;jettySize=auto;html=1;entryX=0.5;entryY=0;entryDx=0;entryDy=0;entryPerimeter=0;" edge="1" parent="1" source="wkYrDo4dlBRFe5t2DFDZ-2" target="wkYrDo4dlBRFe5t2DFDZ-3">
          <mxGeometry relative="1" as="geometry" />
        </mxCell>
        <mxCell id="r6HnroZV0TJYuFAMtPQ7-38" style="edgeStyle=orthogonalEdgeStyle;rounded=0;orthogonalLoop=1;jettySize=auto;html=1;entryX=0.5;entryY=0;entryDx=0;entryDy=0;entryPerimeter=0;" edge="1" parent="1" source="r6HnroZV0TJYuFAMtPQ7-1" target="r6HnroZV0TJYuFAMtPQ7-2">
          <mxGeometry relative="1" as="geometry" />
        </mxCell>
        <mxCell id="r6HnroZV0TJYuFAMtPQ7-39" value="NIH RePORTER" style="shape=cylinder3;whiteSpace=wrap;html=1;boundedLbl=1;backgroundOutline=1;size=15;fillColor=#e1d5e7;strokeColor=#9673a6;" vertex="1" parent="1">
          <mxGeometry x="860.25" y="-140" width="80" height="80" as="geometry" />
        </mxCell>
        <mxCell id="r6HnroZV0TJYuFAMtPQ7-8" value="NCBI &lt;br&gt;PubMed" style="shape=cylinder3;whiteSpace=wrap;html=1;boundedLbl=1;backgroundOutline=1;size=15;fillColor=#e1d5e7;strokeColor=#9673a6;" vertex="1" parent="1">
          <mxGeometry x="1260" y="-140" width="80" height="80" as="geometry" />
        </mxCell>
        <mxCell id="r6HnroZV0TJYuFAMtPQ7-53" style="edgeStyle=orthogonalEdgeStyle;rounded=0;orthogonalLoop=1;jettySize=auto;html=1;entryX=0.5;entryY=0;entryDx=0;entryDy=0;entryPerimeter=0;" edge="1" parent="1" source="r6HnroZV0TJYuFAMtPQ7-7" target="r6HnroZV0TJYuFAMtPQ7-5">
          <mxGeometry relative="1" as="geometry" />
        </mxCell>
        <mxCell id="r6HnroZV0TJYuFAMtPQ7-55" style="edgeStyle=orthogonalEdgeStyle;rounded=0;orthogonalLoop=1;jettySize=auto;html=1;entryX=0;entryY=0.5;entryDx=0;entryDy=0;entryPerimeter=0;" edge="1" parent="1" source="r6HnroZV0TJYuFAMtPQ7-10" target="r6HnroZV0TJYuFAMtPQ7-20">
          <mxGeometry relative="1" as="geometry" />
        </mxCell>
        <mxCell id="r6HnroZV0TJYuFAMtPQ7-62" value="" style="group" vertex="1" connectable="0" parent="1">
          <mxGeometry x="480" y="210" width="160" height="110" as="geometry" />
        </mxCell>
        <mxCell id="r6HnroZV0TJYuFAMtPQ7-56" value="&lt;p style=&quot;line-height: 0%;&quot;&gt;&lt;b&gt;&lt;u&gt;Color Key&lt;/u&gt;&lt;/b&gt;&lt;/p&gt;" style="rounded=0;whiteSpace=wrap;html=1;verticalAlign=top;spacing=-7;" vertex="1" parent="r6HnroZV0TJYuFAMtPQ7-62">
          <mxGeometry width="160" height="110" as="geometry" />
        </mxCell>
        <mxCell id="r6HnroZV0TJYuFAMtPQ7-57" value="ODS Curation" style="rounded=1;whiteSpace=wrap;html=1;fillColor=#d5e8d4;strokeColor=#82b366;" vertex="1" parent="r6HnroZV0TJYuFAMtPQ7-62">
          <mxGeometry x="10" y="20" width="140" height="20" as="geometry" />
        </mxCell>
        <mxCell id="r6HnroZV0TJYuFAMtPQ7-58" value="Stored file output" style="rounded=1;whiteSpace=wrap;html=1;fillColor=#fff2cc;strokeColor=#d6b656;" vertex="1" parent="r6HnroZV0TJYuFAMtPQ7-62">
          <mxGeometry x="10" y="80" width="140" height="20" as="geometry" />
        </mxCell>
        <mxCell id="r6HnroZV0TJYuFAMtPQ7-60" value="Workflow Step" style="rounded=1;whiteSpace=wrap;html=1;fillColor=#dae8fc;strokeColor=#6c8ebf;" vertex="1" parent="r6HnroZV0TJYuFAMtPQ7-62">
          <mxGeometry x="10" y="40" width="140" height="20" as="geometry" />
        </mxCell>
        <mxCell id="r6HnroZV0TJYuFAMtPQ7-61" value="External Resource" style="rounded=1;whiteSpace=wrap;html=1;fillColor=#e1d5e7;strokeColor=#9673a6;" vertex="1" parent="r6HnroZV0TJYuFAMtPQ7-62">
          <mxGeometry x="10" y="60" width="140" height="20" as="geometry" />
        </mxCell>
        <mxCell id="r6HnroZV0TJYuFAMtPQ7-63" value="" style="group" vertex="1" connectable="0" parent="1">
          <mxGeometry x="1400" y="104" width="135" height="70" as="geometry" />
        </mxCell>
        <mxCell id="r6HnroZV0TJYuFAMtPQ7-64" value="" style="strokeWidth=1;html=1;shape=mxgraph.flowchart.document2;whiteSpace=wrap;size=0.25;fillColor=#fff2cc;strokeColor=#d6b656;verticalAlign=top;" vertex="1" parent="r6HnroZV0TJYuFAMtPQ7-63">
          <mxGeometry width="120" height="50.90909090909091" as="geometry" />
        </mxCell>
        <mxCell id="r6HnroZV0TJYuFAMtPQ7-65" value="" style="strokeWidth=1;html=1;shape=mxgraph.flowchart.document2;whiteSpace=wrap;size=0.25;fillColor=#fff2cc;strokeColor=#d6b656;verticalAlign=top;" vertex="1" parent="r6HnroZV0TJYuFAMtPQ7-63">
          <mxGeometry x="5" y="6.363636363636363" width="120" height="50.90909090909091" as="geometry" />
        </mxCell>
        <mxCell id="r6HnroZV0TJYuFAMtPQ7-66" value="" style="strokeWidth=1;html=1;shape=mxgraph.flowchart.document2;whiteSpace=wrap;size=0.25;fillColor=#fff2cc;strokeColor=#d6b656;verticalAlign=top;" vertex="1" parent="r6HnroZV0TJYuFAMtPQ7-63">
          <mxGeometry x="10" y="12.727272727272727" width="120" height="50.90909090909091" as="geometry" />
        </mxCell>
        <mxCell id="r6HnroZV0TJYuFAMtPQ7-67" value="Temporary Publication Files" style="strokeWidth=1;html=1;shape=mxgraph.flowchart.document2;whiteSpace=wrap;size=0.25;fillColor=#fff2cc;strokeColor=#d6b656;verticalAlign=top;" vertex="1" parent="r6HnroZV0TJYuFAMtPQ7-63">
          <mxGeometry x="15" y="19.09090909090909" width="120" height="50.90909090909091" as="geometry" />
        </mxCell>
        <mxCell id="r6HnroZV0TJYuFAMtPQ7-73" style="edgeStyle=orthogonalEdgeStyle;rounded=0;orthogonalLoop=1;jettySize=auto;html=1;entryX=0.5;entryY=0;entryDx=0;entryDy=0;entryPerimeter=0;" edge="1" parent="1" source="r6HnroZV0TJYuFAMtPQ7-7" target="r6HnroZV0TJYuFAMtPQ7-64">
          <mxGeometry relative="1" as="geometry" />
        </mxCell>
      </root>
    </mxGraphModel>
  </diagram>
</mxfile>
